<?xml version="1.0" encoding="UTF-8" standalone="no"?>
<!-- Created with Inkscape (http://www.inkscape.org/) -->

<svg
   xmlns:dc="http://purl.org/dc/elements/1.1/"
   xmlns:cc="http://creativecommons.org/ns#"
   xmlns:rdf="http://www.w3.org/1999/02/22-rdf-syntax-ns#"
   xmlns:svg="http://www.w3.org/2000/svg"
   xmlns="http://www.w3.org/2000/svg"
   xmlns:sodipodi="http://sodipodi.sourceforge.net/DTD/sodipodi-0.dtd"
   xmlns:inkscape="http://www.inkscape.org/namespaces/inkscape"
   width="744.09448819"
   height="1052.3622047"
   id="svg3734"
   sodipodi:version="0.32"
   inkscape:version="0.48.4 r9939"
   sodipodi:docname="initials_source.svg"
   inkscape:output_extension="org.inkscape.output.svg.inkscape"
   version="1.1">
  <defs
     id="defs3736">
    <inkscape:perspective
       sodipodi:type="inkscape:persp3d"
       inkscape:vp_x="0 : 526.18109 : 1"
       inkscape:vp_y="0 : 1000 : 0"
       inkscape:vp_z="744.09448 : 526.18109 : 1"
       inkscape:persp3d-origin="372.04724 : 350.78739 : 1"
       id="perspective3742" />
  </defs>
  <sodipodi:namedview
     id="base"
     pagecolor="#ffffff"
     bordercolor="#666666"
     borderopacity="1.0"
     gridtolerance="10000"
     guidetolerance="10"
     objecttolerance="10"
     inkscape:pageopacity="0.0"
     inkscape:pageshadow="2"
     inkscape:zoom="0.7"
     inkscape:cx="193.03467"
     inkscape:cy="542.48829"
     inkscape:document-units="px"
     inkscape:current-layer="layer1"
     showgrid="false"
     inkscape:window-width="1280"
     inkscape:window-height="945"
     inkscape:window-x="0"
     inkscape:window-y="27"
     inkscape:window-maximized="0" />
  <metadata
     id="metadata3739">
    <rdf:RDF>
      <cc:Work
         rdf:about="">
        <dc:format>image/svg+xml</dc:format>
        <dc:type
           rdf:resource="http://purl.org/dc/dcmitype/StillImage" />
        <dc:title></dc:title>
      </cc:Work>
    </rdf:RDF>
  </metadata>
  <g
     inkscape:label="Layer 1"
     inkscape:groupmode="layer"
     id="layer1">
    <rect
       style="fill:#8b0000;fill-opacity:1;stroke:#ffffff;stroke-width:2.00513028999999987;stroke-miterlimit:4;stroke-opacity:1;stroke-dasharray:none"
       id="rect2990"
       width="637.99487"
       height="637.99487"
       x="79.95256"
       y="171.55762"
       rx="6.2675233" />
    <g
       id="g3760"
       style="fill:#ffffff;fill-opacity:1">
      <g
         inkscape:export-ydpi="49.218754"
         inkscape:export-xdpi="49.218754"
         inkscape:export-filename="/home/mlissner/Documents/Cal/Spring 2009/Info 290-6 - Interface Aesthetics/Homework/Final Versions, V2/Presentation Materials/MJL, Large.png"
         transform="matrix(15.778733,0,0,-15.778733,-1932.2299,857.65479)"
         id="g713"
         style="fill:#ffffff;fill-opacity:1">
        <path
           inkscape:export-ydpi="267.20013"
           inkscape:export-xdpi="267.20013"
           inkscape:export-filename="/home/mlissner/Documents/Cal/Spring 2009/Info 290-6 - Interface Aesthetics/Fonts/initials_125x.png"
           id="path715"
           style="fill:#ffffff;fill-opacity:1;fill-rule:nonzero;stroke:none"
           d="M 143.1385,34.655554 C 142.0225,34.655554 141.0865,35.628554 141.0865,36.743554 C 141.0865,37.823554 142.0945,38.795554 143.1385,38.795554 C 144.1825,38.795554 145.2265,37.859554 145.2265,36.743554 C 145.2265,35.592554 144.2545,34.655554 143.1385,34.655554 M 142.0945,20.653554 C 141.4825,17.809554 140.9075,14.642554 139.7905,11.942554 C 138.8195,9.4955549 136.6595,6.9035549 133.8155,6.9035549 C 132.1235,6.9035549 130.3965,7.4435549 130.3965,9.4235549 C 130.3965,10.287555 131.2605,11.079555 132.0885,11.079555 C 133.0235,11.079555 133.8155,10.610555 133.8155,9.6025549 C 133.8155,9.0625549 133.5995,8.9555549 133.5995,8.4875549 C 133.5995,8.1275549 133.9235,7.7315549 134.3195,7.8025549 C 134.9315,7.9115549 135.2195,8.3065549 135.4355,8.8465549 C 136.4075,11.079555 137.4155,16.190554 137.9555,18.817554 L 140.0425,28.680554 L 137.1995,28.680554 L 137.4515,29.580554 L 140.7635,29.580554 C 141.3385,29.580554 141.8785,29.616554 142.4185,29.652554 C 142.9585,29.688554 143.5345,29.724554 144.0745,29.724554 L 142.0945,20.653554 z" />
      </g>
      <g
         inkscape:export-ydpi="49.218754"
         inkscape:export-xdpi="49.218754"
         inkscape:export-filename="/home/mlissner/Documents/Cal/Spring 2009/Info 290-6 - Interface Aesthetics/Homework/Final Versions, V2/Presentation Materials/MJL, Large.png"
         transform="matrix(15.778733,0,0,-15.778733,-1478.9306,792.90668)"
         id="g721"
         style="fill:#ffffff;fill-opacity:1">
        <path
           inkscape:export-ydpi="267.20013"
           inkscape:export-xdpi="267.20013"
           inkscape:export-filename="/home/mlissner/Documents/Cal/Spring 2009/Info 290-6 - Interface Aesthetics/Fonts/initials_125x.png"
           id="path723"
           style="fill:#ffffff;fill-opacity:1;fill-rule:nonzero;stroke:none"
           d="M 131.17561,34.563386 L 128.29561,34.563386 L 128.54761,35.463386 L 135.24261,35.715386 L 130.52761,14.730386 C 130.05961,12.642386 130.09561,12.138386 130.95961,12.138386 C 132.47161,12.138386 134.09161,15.162386 134.48761,16.385386 L 135.35061,16.206386 C 134.41461,13.650386 132.47161,10.590386 129.41161,10.590386 C 127.32361,10.590386 126.09961,11.562386 126.85561,14.946386 L 131.17561,34.563386 z" />
      </g>
      <g
         inkscape:export-ydpi="49.218754"
         inkscape:export-xdpi="49.218754"
         inkscape:export-filename="/home/mlissner/Documents/Cal/Spring 2009/Info 290-6 - Interface Aesthetics/Homework/Final Versions, V2/Presentation Materials/MJL, Large.png"
         transform="matrix(15.778733,0,0,-15.778733,-1298.2988,987.13658)"
         id="g725"
         style="fill:#ffffff;fill-opacity:1">
        <path
           inkscape:export-ydpi="267.20013"
           inkscape:export-xdpi="267.20013"
           inkscape:export-filename="/home/mlissner/Documents/Cal/Spring 2009/Info 290-6 - Interface Aesthetics/Fonts/initials_125x.png"
           id="path727"
           style="fill:#ffffff;fill-opacity:1;fill-rule:nonzero;stroke:none"
           d="M 103.22931,34.655555 L 103.30131,34.583555 C 104.66831,36.310555 106.64831,38.002555 108.98831,38.002555 C 111.36431,38.002555 112.19131,36.886555 112.15631,34.474555 C 113.56031,36.131555 115.57531,38.002555 117.87931,38.002555 C 119.10331,38.002555 120.93831,37.246555 120.93831,35.734555 C 120.93831,34.655555 120.68731,33.611555 120.43531,32.531555 C 120.18331,31.487555 118.74331,26.015555 118.74331,25.404555 C 118.74331,24.971555 119.17531,24.792555 119.53531,24.792555 C 120.75931,24.792555 122.27131,27.815555 122.77431,28.752555 L 123.53031,28.391555 C 122.05431,26.015555 120.86731,23.100555 117.62731,23.100555 C 116.43931,23.100555 115.14331,23.784555 115.14331,25.116555 C 115.14331,26.267555 115.64731,28.283555 115.93531,29.435555 C 116.15131,30.227555 117.37531,35.014555 117.37531,35.446555 C 117.37531,36.094555 116.90731,36.562555 116.22331,36.562555 C 115.43131,36.562555 114.17131,35.482555 113.66731,34.978555 C 112.58731,33.898555 111.68731,32.207555 111.32831,30.695555 L 109.60031,23.532555 L 105.96431,23.532555 L 107.40431,29.796555 C 107.62031,30.731555 108.62831,34.835555 108.62831,35.482555 C 108.62831,36.274555 108.08831,36.562555 107.36831,36.562555 C 104.63331,36.562555 102.54531,31.955555 102.04131,29.687555 L 100.70931,23.532555 L 97.038312,23.532555 L 99.881312,36.886555 L 97.038312,36.886555 L 97.290312,37.786555 L 100.60131,37.786555 C 101.71731,37.786555 102.79731,37.930555 103.91331,37.930555 L 103.22931,34.655555 z" />
      </g>
    </g>
  </g>
</svg>
